<?xml version="1.0" encoding="utf-8"?>
<svg width="123" height="56" viewBox="0 0 59.578 55.279" fill="none" xmlns="http://www.w3.org/2000/svg">
  <path d="M36.4 30.8C41.0392 30.8 44.8 27.0392 44.8 22.4C44.8 17.7608 41.0392 14 36.4 14C31.7608 14 28 17.7608 28 22.4C28 27.0392 31.7608 30.8 36.4 30.8Z" fill="#FFCC00" stroke="#FF9900" stroke-width="1.5"/>
  <path d="M8.4 33.6C8.4 29.68 11.76 26.32 15.68 26.32C17.36 22.4 21.28 19.6 25.76 19.6C31.36 19.6 35.84 24.08 35.84 29.68C39.2 29.68 42 32.48 42 36.4C42 40.32 39.2 43.12 35.84 43.12H15.68C11.76 43.12 8.4 39.76 8.4 36.4V33.6Z" fill="white" stroke="#DDDDDD" stroke-width="2"/>
  <path d="M36.4 11.2V8.4" stroke="#FF9900" stroke-width="2" stroke-linecap="round"/>
  <path d="M47.6 22.4H50.4" stroke="#FF9900" stroke-width="2" stroke-linecap="round"/>
  <path d="M43.68 15.12L46.48 12.32" stroke="#FF9900" stroke-width="2" stroke-linecap="round"/>
  <path d="M43.68 29.68L46.48 32.48" stroke="#FF9900" stroke-width="2" stroke-linecap="round"/>
  <path d="M29.12 15.12L26.32 12.32" stroke="#FF9900" stroke-width="2" stroke-linecap="round"/>
  <path d="M64.28 32.144C62.936 32.144 61.864 31.8133 61.064 31.152C60.2747 30.4907 59.8107 29.5467 59.672 28.32H60.952C61.0693 29.2053 61.4053 29.872 61.96 30.32C62.5147 30.768 63.2827 30.992 64.264 30.992C65.096 30.992 65.72 30.8373 66.136 30.528C66.5627 30.208 66.776 29.744 66.776 29.136C66.776 28.6133 66.632 28.1973 66.344 27.888C66.056 27.5787 65.608 27.3227 65 27.12L63.064 26.448C62.0827 26.1067 61.3573 25.696 60.888 25.216C60.4187 24.7253 60.184 24.1067 60.184 23.36C60.184 22.7413 60.3387 22.208 60.648 21.76C60.9573 21.3013 61.3947 20.944 61.96 20.688C62.5253 20.432 63.1813 20.304 63.928 20.304C65.08 20.304 66.0027 20.608 66.696 21.216C67.3893 21.8133 67.7893 22.6667 67.896 23.776H66.616C66.4773 22.976 66.1893 22.3893 65.752 22.016C65.3253 21.6427 64.7067 21.456 63.896 21.456C63.128 21.456 62.5307 21.6107 62.104 21.92C61.6773 22.2293 61.464 22.6667 61.464 23.232C61.464 23.712 61.6133 24.096 61.912 24.384C62.2107 24.672 62.6747 24.9227 63.304 25.136L65.368 25.856C66.264 26.1653 66.936 26.5867 67.384 27.12C67.832 27.6427 68.056 28.3093 68.056 29.12C68.056 30.08 67.7253 30.8267 67.064 31.36C66.4133 31.8827 65.4853 32.144 64.28 32.144ZM70.0144 32V20.16H71.2944V32H70.0144ZM75.3424 32L71.0064 27.76L75.1824 23.84H76.9424L72.2544 28.128L72.3344 27.376L77.1024 32H75.3424ZM78.8278 35.28L80.6518 31.04L80.9398 30.592L83.6118 23.84H84.9237L80.1878 35.28H78.8278ZM80.7958 32.08L77.1318 23.84H78.5398L81.6918 31.216L80.7958 32.08ZM89.5276 32.16C88.781 32.16 88.1143 31.9787 87.5276 31.616C86.9516 31.2427 86.493 30.736 86.1516 30.096C85.821 29.4453 85.6556 28.7093 85.6556 27.888C85.6556 27.0667 85.821 26.3413 86.1516 25.712C86.493 25.0827 86.9516 24.5867 87.5276 24.224C88.1143 23.8613 88.7756 23.68 89.5116 23.68C90.1196 23.68 90.6636 23.7973 91.1436 24.032C91.6343 24.2667 92.0343 24.6027 92.3436 25.04C92.6636 25.4667 92.8663 25.968 92.9516 26.544H91.7676C91.661 26.0213 91.4156 25.5947 91.0316 25.264C90.6476 24.9333 90.1516 24.768 89.5436 24.768C89.021 24.768 88.5676 24.896 88.1836 25.152C87.7996 25.408 87.501 25.7707 87.2876 26.24C87.0743 26.7093 86.9676 27.2587 86.9676 27.888C86.9676 28.5173 87.0743 29.072 87.2876 29.552C87.501 30.032 87.7996 30.4053 88.1836 30.672C88.5783 30.9387 89.037 31.072 89.5596 31.072C90.1463 31.072 90.637 30.912 91.0316 30.592C91.4263 30.2613 91.677 29.8347 91.7836 29.312H92.9676C92.8716 29.8773 92.6583 30.3787 92.3276 30.816C92.0076 31.2427 91.6076 31.5733 91.1276 31.808C90.6476 32.0427 90.1143 32.16 89.5276 32.16ZM99.8036 32C99.761 31.8187 99.729 31.6107 99.7076 31.376C99.697 31.1413 99.6916 30.8427 99.6916 30.48H99.6116V26.576C99.6116 25.9573 99.4676 25.504 99.1796 25.216C98.9023 24.9173 98.449 24.768 97.8196 24.768C97.201 24.768 96.705 24.896 96.3316 25.152C95.969 25.3973 95.7663 25.7493 95.7236 26.208H94.4916C94.545 25.4187 94.8756 24.8 95.4836 24.352C96.0916 23.904 96.8863 23.68 97.8676 23.68C98.881 23.68 99.633 23.92 100.124 24.4C100.614 24.88 100.86 25.6 100.86 26.56V30.48C100.86 30.7147 100.876 30.96 100.908 31.216C100.94 31.4613 100.982 31.7227 101.036 32H99.8036ZM97.0036 32.16C96.161 32.16 95.489 31.9573 94.9876 31.552C94.497 31.136 94.2516 30.5707 94.2516 29.856C94.2516 29.1413 94.497 28.5867 94.9876 28.192C95.4783 27.7973 96.193 27.52 97.1316 27.36L99.9796 26.88V27.936L97.3236 28.352C96.7263 28.448 96.273 28.608 95.9636 28.832C95.6543 29.056 95.4996 29.3813 95.4996 29.808C95.4996 30.224 95.6383 30.5387 95.9156 30.752C96.2036 30.9653 96.625 31.072 97.1796 31.072C97.8943 31.072 98.4756 30.912 98.9236 30.592C99.3823 30.2613 99.6116 29.8347 99.6116 29.312L99.8196 30.448C99.649 30.992 99.313 31.4133 98.8116 31.712C98.321 32.0107 97.7183 32.16 97.0036 32.16ZM106.064 32.16C105.061 32.16 104.261 31.9307 103.664 31.472C103.066 31.0027 102.725 30.3413 102.64 29.488H103.872C103.946 30.0107 104.176 30.4107 104.56 30.688C104.944 30.9653 105.456 31.104 106.096 31.104C106.661 31.104 107.104 30.9973 107.424 30.784C107.744 30.5707 107.904 30.2667 107.904 29.872C107.904 29.5947 107.813 29.3547 107.632 29.152C107.45 28.9387 107.088 28.7627 106.544 28.624L105.232 28.288C104.485 28.096 103.925 27.8027 103.552 27.408C103.178 27.0027 102.992 26.5227 102.992 25.968C102.992 25.264 103.253 24.7093 103.776 24.304C104.298 23.888 105.008 23.68 105.904 23.68C106.789 23.68 107.509 23.8933 108.064 24.32C108.618 24.7467 108.933 25.3387 109.008 26.096H107.776C107.701 25.6587 107.498 25.3227 107.168 25.088C106.837 24.8533 106.4 24.736 105.856 24.736C105.333 24.736 104.928 24.8373 104.64 25.04C104.352 25.232 104.208 25.5093 104.208 25.872C104.208 26.1493 104.309 26.3893 104.512 26.592C104.725 26.7947 105.077 26.9653 105.568 27.104L106.848 27.456C107.605 27.6587 108.176 27.968 108.56 28.384C108.944 28.8 109.136 29.3013 109.136 29.888C109.136 30.6027 108.864 31.1627 108.32 31.568C107.776 31.9627 107.024 32.16 106.064 32.16ZM114.122 32.144C113.215 32.144 112.554 31.9413 112.138 31.536C111.733 31.12 111.53 30.5227 111.53 29.744V21.936L112.81 21.456V29.728C112.81 30.1867 112.927 30.5227 113.162 30.736C113.397 30.9493 113.781 31.056 114.314 31.056C114.527 31.056 114.709 31.0453 114.858 31.024C115.018 30.992 115.146 30.9547 115.242 30.912V32C115.135 32.0427 114.981 32.0747 114.778 32.096C114.586 32.128 114.367 32.144 114.122 32.144ZM109.85 24.928V23.84H115.242V24.928H109.85Z" fill="black"/>
</svg>